<?xml version="1.0" encoding="utf-8"?>
<!-- Generator: Adobe Illustrator 24.0.0, SVG Export Plug-In . SVG Version: 6.00 Build 0)  -->
<svg version="1.1"
	 id="svg8" xmlns:cc="http://creativecommons.org/ns#" xmlns:dc="http://purl.org/dc/elements/1.1/" xmlns:inkscape="http://www.inkscape.org/namespaces/inkscape" xmlns:rdf="http://www.w3.org/1999/02/22-rdf-syntax-ns#" xmlns:sodipodi="http://sodipodi.sourceforge.net/DTD/sodipodi-0.dtd" xmlns:svg="http://www.w3.org/2000/svg"
	 xmlns="http://www.w3.org/2000/svg" xmlns:xlink="http://www.w3.org/1999/xlink" x="0px" y="0px" viewBox="0 0 17.2 40.4"
	 style="enable-background:new 0 0 17.2 40.4;" xml:space="preserve">
<style type="text/css">
	.st0{fill:#4D4D4D;stroke:#999999;stroke-width:0.4252;stroke-miterlimit:11.3386;}
	.st1{fill:none;stroke:#999999;stroke-width:0.4233;stroke-miterlimit:11.3386;}
	.st2{fill:none;stroke:#999999;stroke-width:0.4072;stroke-linejoin:bevel;stroke-miterlimit:11.3386;}
	.st3{fill:none;stroke:#999999;stroke-width:0.4252;stroke-miterlimit:11.3386;}
	.st4{fill:#333333;stroke:#999999;stroke-width:0.4252;stroke-miterlimit:11.3386;}
	.st5{fill:#333333;stroke:#999999;stroke-width:0.4252;stroke-linecap:round;stroke-miterlimit:11.3386;}
	.st6{fill:none;stroke:#999999;stroke-width:0.2041;stroke-linecap:round;stroke-miterlimit:11.3386;}
</style>
<sodipodi:namedview  bordercolor="#666666" borderopacity="1.0" fit-margin-bottom="0" fit-margin-left="0" fit-margin-right="0" fit-margin-top="0" gridtolerance="1" guidetolerance="1" id="base" inkscape:current-layer="layer1" inkscape:cx="-21.948053" inkscape:cy="19.708884" inkscape:document-units="mm" inkscape:pageopacity="0.0" inkscape:pageshadow="2" inkscape:window-height="1017" inkscape:window-maximized="1" inkscape:window-width="1920" inkscape:window-x="-8" inkscape:window-y="-8" inkscape:zoom="8" objecttolerance="1" pagecolor="#ffffff" showgrid="true">
	<inkscape:grid  id="grid815" originx="0.032291622" originy="0.63229154" spacingx="0.1" spacingy="0.1" type="xygrid" units="mm">
		</inkscape:grid>
</sodipodi:namedview>
<g id="layer1" transform="translate(0.03229162,-283.36771)" inkscape:groupmode="layer" inkscape:label="Layer 1">
	<path id="path830" inkscape:connector-curvature="0" sodipodi:nodetypes="ccccccccc" class="st0" d="M0.3,286.7l4-2.9h8.5l4,2.9v34
		l-4,2.8H4.3l-4-2.9L0.3,286.7z"/>
	<path id="path836" inkscape:connector-curvature="0" sodipodi:nodetypes="ccc" class="st1" d="M12.8,290.8v32.3l0,0.3"/>
	<path id="path840" inkscape:connector-curvature="0" sodipodi:nodetypes="ccccc" class="st2" d="M0.3,286.8l4,4.1l8.5,0l4-4.1l0,0"
		/>
	<path id="path836-5" inkscape:connector-curvature="0" sodipodi:nodetypes="ccc" class="st3" d="M4.3,290.8v32.3v0.3"/>
	
		<path id="path838" sodipodi:cx="3.0341406" sodipodi:cy="284.79495" sodipodi:end="1.5791722" sodipodi:open="true" sodipodi:rx="1.177664" sodipodi:ry="0.8050853" sodipodi:start="1.5791983" sodipodi:type="arc" class="st4" d="
		M8.6,289.7c-1.8,0-3.3-1-3.3-2.3l0,0c0-1.3,1.5-2.3,3.4-2.3c1.8,0,3.3,1,3.3,2.3C12,288.7,10.5,289.7,8.6,289.7"/>
	
		<path id="path857" sodipodi:cx="3.0357895" sodipodi:cy="284.93607" sodipodi:end="1.5791722" sodipodi:open="true" sodipodi:rx="1.1152829" sodipodi:ry="0.66940439" sodipodi:start="1.5791983" sodipodi:type="arc" class="st5" d="
		M8.6,289.7c-1.7,0-3.1-0.9-3.1-1.9c0-1,1.4-1.9,3.2-1.9s3.1,0.9,3.1,1.9C11.8,288.9,10.4,289.7,8.6,289.7"/>
	
		<path id="path857-6" sodipodi:cx="3.0337737" sodipodi:cy="285.06976" sodipodi:end="1.5791722" sodipodi:open="true" sodipodi:rx="1.0273882" sodipodi:ry="0.53578931" sodipodi:start="1.5791983" sodipodi:type="arc" class="st5" d="
		M8.6,289.7c-1.6,0-2.9-0.7-2.9-1.5c0-0.8,1.3-1.5,2.9-1.5c0,0,0,0,0,0c1.6,0,2.9,0.7,2.9,1.5C11.6,289,10.2,289.7,8.6,289.7"/>
	
		<path id="path857-6-6" sodipodi:cx="3.0272038" sodipodi:cy="285.20496" sodipodi:end="1.5791722" sodipodi:open="true" sodipodi:rx="0.92624122" sodipodi:ry="0.39835057" sodipodi:start="1.5791983" sodipodi:type="arc" class="st5" d="
		M8.6,289.7c-1.4,0-2.6-0.5-2.6-1.1c0-0.6,1.2-1.1,2.6-1.1s2.6,0.5,2.6,1.1C11.3,289.2,10.1,289.7,8.6,289.7"/>
	
		<path id="path857-6-6-5" sodipodi:cx="3.0257545" sodipodi:cy="285.33844" sodipodi:end="1.5791722" sodipodi:open="true" sodipodi:rx="0.78283709" sodipodi:ry="0.26154006" sodipodi:start="1.5791983" sodipodi:type="arc" class="st5" d="
		M8.6,289.7c-1.2,0-2.2-0.3-2.2-0.7l0,0c0-0.4,1-0.7,2.2-0.7c0,0,0,0,0,0c1.2,0,2.2,0.3,2.2,0.7l0,0C10.8,289.4,9.8,289.7,8.6,289.7
		"/>
	
		<path id="path857-6-6-5-6" sodipodi:cx="3.0359914" sodipodi:cy="285.46759" sodipodi:end="1.5791722" sodipodi:open="true" sodipodi:rx="0.68931979" sodipodi:ry="0.19858944" sodipodi:start="1.5791983" sodipodi:type="arc" class="st6" d="
		M8.6,289.9c-1.1,0-1.9-0.3-1.9-0.6c0,0,0,0,0,0c0-0.3,0.9-0.6,2-0.6c1.1,0,1.9,0.3,1.9,0.6C10.6,289.6,9.7,289.9,8.6,289.9
		C8.6,289.9,8.6,289.9,8.6,289.9"/>
</g>
</svg>
